#!OML:ASF F:\VICON\USERDATA\INSTALL\rory3\rory3.ASF
:FULLY-SPECIFIED
:DEGREES
278
root -9.28385 17.7465 12.0247 -7.56667 -43.3843 11.109
lowerback 9.52831 0.0301328 -7.06619
upperback 0.957804 -0.769065 -0.887463
thorax -4.27075 -0.274429 3.1494
lowerneck -21.0206 -4.02273 -9.20932
upperneck 25.8952 -4.9104 7.43609
head 12.5097 -2.16934 3.55771
rclavicle 6.27663e-014 1.90833e-014
rhumerus -37.6789 -17.5422 -77.7624
rradius 31.6903
rwrist 10.4609
rhand -11.8757 10.065
rfingers 7.12502
rthumb 14.1768 -19.4313
lclavicle 6.27663e-014 1.90833e-014
lhumerus -33.5289 1.23682 81.2364
lradius 37.8086
lwrist -6.1368
lhand -15.451 25.0252
lfingers 7.12502
lthumb 10.7298 54.7312
rfemur -28.9156 -1.6794 13.4483
rtibia 24.8884
rfoot -11.8197 -6.07301
rtoes -4.08388
lfemur 20.1382 -2.37296 -32.0208
ltibia -3.18055e-015
lfoot -1.7809 -8.46802
ltoes -3.99546
279
root -9.42635 17.7417 12.135 -7.81011 -43.2944 11.3227
lowerback 9.28304 -0.0226093 -7.22103
upperback 1.07018 -0.832843 -0.966683
thorax -4.0079 -0.316359 3.15763
lowerneck -21.0749 -3.99427 -9.24743
upperneck 25.9029 -4.89062 7.56419
head 12.5264 -2.14671 3.61782
rclavicle 5.11871e-014 5.1684e-015
rhumerus -37.6193 -17.8242 -77.7063
rradius 31.3226
rwrist 10.8295
rhand -11.8016 10.3351
rfingers 7.12502
rthumb 14.2482 -19.1561
lclavicle 5.11871e-014 5.1684e-015
lhumerus -33.6455 1.40749 81.1299
lradius 37.8223
lwrist -6.09286
lhand -15.6923 25.2468
lfingers 7.12502
lthumb 10.497 54.9647
rfemur -28.4625 -1.54885 13.421
rtibia 25.4614
rfoot -11.7758 -5.04315
rtoes -3.16417
lfemur 20.8285 -2.5629 -32.1359
ltibia 4.77083e-014
lfoot -1.14876 -8.64392
ltoes -3.45044
280
root -9.5714 17.7467 12.2421 -7.80473 -43.1232 11.2213
lowerback 9.39022 0.00504469 -7.6418
upperback 0.898462 -0.838035 -0.603566
thorax -4.23632 -0.295028 3.77773
lowerneck -20.8043 -3.97344 -9.45036
upperneck 25.9791 -4.71732 7.22527
head 12.4809 -2.14143 3.55275
rclavicle 3.35946e-014 1.03368e-014
rhumerus -37.9171 -17.8561 -77.0117
rradius 30.9268
rwrist 11.15
rhand -11.927 10.3725
rfingers 7.12502
rthumb 14.1274 -19.1272
lclavicle 3.35946e-014 1.03368e-014
lhumerus -34.1522 1.69967 81.6279
lradius 37.8051
lwrist -6.01563
lhand -15.7988 25.5803
lfingers 7.12502
lthumb 10.3943 55.3034
rfemur -28.0663 -1.42137 13.6027
rtibia 25.9707
rfoot -11.0205 -4.06676
rtoes -2.51125
lfemur 21.4616 -2.87511 -32.0082
ltibia 9.54166e-015
lfoot -0.425103 -8.83489
ltoes -4.94068
281
root -9.71805 17.763 12.3461 -7.64769 -42.8634 11.0152
lowerback 9.12296 -0.136831 -7.31319
upperback 0.941952 -0.974497 -0.775985
thorax -4.03274 -0.378258 3.42483
lowerneck -20.6487 -3.86712 -9.20708
upperneck 25.8614 -4.65853 7.22685
head 12.389 -2.0928 3.51954
rclavicle -3.84648e-014 1.98785e-015
rhumerus -37.9117 -18.5557 -77.1094
rradius 30.4006
rwrist 11.8508
rhand -11.9733 10.7887
rfingers 7.12502
rthumb 14.0827 -18.7141
lclavicle -3.84648e-014 1.98785e-015
lhumerus -34.2491 1.68625 81.2809
lradius 37.7542
lwrist -5.9244
lhand -15.7089 25.6097
lfingers 7.12502
lthumb 10.481 55.3284
rfemur -27.7945 -0.998278 13.6802
rtibia 26.3951
rfoot -9.60625 -3.3055
rtoes -2.49018
lfemur 21.9812 -3.30362 -31.8005
ltibia -2.22639e-014
lfoot 0.624378 -8.98067
ltoes -7.54315
282
root -9.8646 17.7864 12.4542 -7.35049 -42.6192 10.6414
lowerback 9.12598 -0.243057 -7.29695
upperback 0.772222 -1.10929 -0.552409
thorax -4.19318 -0.432007 3.66788
lowerneck -20.5778 -3.80555 -9.24229
upperneck 26.077 -4.51983 7.02855
head 12.4421 -2.06546 3.47771
rclavicle -3.13583e-014 -1.19271e-015
rhumerus -38.2196 -18.5408 -76.7043
rradius 30.0798
rwrist 12.0628
rhand -11.8818 10.3918
rfingers 7.12502
rthumb 14.1709 -19.1049
lclavicle -3.13583e-014 -1.19271e-015
lhumerus -34.7559 2.60319 81.2127
lradius 37.6956
lwrist -6.5248
lhand -15.7321 25.211
lfingers 7.12502
lthumb 10.4586 54.9308
rfemur -27.5506 -0.477959 13.8051
rtibia 26.7382
rfoot -8.25564 -2.70145
rtoes -2.23467
lfemur 22.4744 -3.74212 -31.4519
ltibia -5.40694e-014
lfoot 1.98529 -9.11877
ltoes -8.85958
283
root -10.0094 17.8056 12.5695 -7.02165 -42.6026 10.1812
lowerback 9.40229 -0.230605 -7.37168
upperback 0.370927 -1.11728 -0.118031
thorax -4.7598 -0.396297 4.17699
lowerneck -20.32 -3.77567 -9.49496
upperneck 26.4589 -4.3524 6.73231
head 12.5255 -2.06776 3.44394
rclavicle -1.02175e-013 1.59028e-014
rhumerus -38.8168 -18.3611 -75.9043
rradius 29.7554
rwrist 12.2545
rhand -11.837 9.87701
rfingers 7.12502
rthumb 14.2141 -19.6166
lclavicle -1.02175e-013 1.59028e-014
lhumerus -35.6368 3.82536 81.3702
lradius 37.56
lwrist -7.20202
lhand -15.6218 25.0426
lfingers 7.12502
lthumb 10.565 54.7571
rfemur -27.2848 -0.0542934 14.1045
rtibia 26.9735
rfoot -7.16744 -2.14572
rtoes -0.0915079
lfemur 22.9973 -3.95397 -31.0436
ltibia -1.90833e-014
lfoot 3.08656 -9.45686
ltoes -11.9088
284
root -10.1506 17.8218 12.6882 -6.48761 -42.7567 9.37249
lowerback 9.41958 -0.216812 -6.82336
upperback 0.189137 -1.03224 0.146241
thorax -4.97533 -0.349859 4.13759
lowerneck -20.2414 -3.74483 -9.49209
upperneck 26.7462 -4.25967 6.48224
head 12.6095 -2.06631 3.36869
rclavicle 1.36167e-014 -3.97569e-015
rhumerus -39.1308 -18.5435 -75.4453
rradius 29.3412
rwrist 12.5495
rhand -12.0053 9.91617
rfingers 7.12502
rthumb 14.0519 -19.5888
lclavicle 1.36167e-014 -3.97569e-015
lhumerus -36.1268 4.44646 81.4137
lradius 37.3433
lwrist -7.2304
lhand -15.6334 25.0198
lfingers 7.12502
lthumb 10.5538 54.7348
rfemur -26.887 0.319674 14.7537
rtibia 27.0636
rfoot -6.10003 -1.6572
rtoes 3.09697
lfemur 23.5381 -4.02027 -30.3657
ltibia -3.18055e-015
lfoot 3.91547 -10.0239
ltoes -16.8104
